# xmcd CD database file
#
# Track frame offsets:
#	150
#	23772
#	40506
#
# Disc length: 800 seconds
#
# Revision: 0
# Processed by: cddbd v1.5.1PL0 Copyright (c) Steve Scherf et al.
# Submitted via: CDex 1.51
#
DISCID=15031e03
DTITLE=Every Little Thing - commonplace tour 2004-2005
DYEAR=2004
DGENRE=JPop
TTITLE0=stray cat
TTITLE1=water(s)
TTITLE2=鮮やかなもの
EXTD=YEAR: 2004
EXTT0=
EXTT1=
EXTT2=
PLAYORDER=
